<svg width="32" height="32" viewBox="0 0 22 22" fill="none" xmlns="http://www.w3.org/2000/svg">
<path fill-rule="evenodd" clip-rule="evenodd" d="M16.91 1.75C15.8942 1.75 15.08 2.56421 15.08 3.58C15.08 4.55792 15.8321 5.34607 16.7843 5.40782C16.8641 5.40073 16.9459 5.40073 17.0258 5.40782C17.9762 5.34613 18.7316 4.559 18.74 3.57733C18.7386 2.57086 17.923 1.75 16.91 1.75ZM13.58 3.58C13.58 1.73579 15.0658 0.25 16.91 0.25C18.7561 0.25 20.24 1.74768 20.24 3.58V3.58536H20.24C20.2271 5.38428 18.8111 6.84488 17.0272 6.90951C16.9864 6.91099 16.9455 6.90913 16.905 6.90396C16.8645 6.90913 16.8237 6.91099 16.7829 6.90951C14.9999 6.84491 13.58 5.38403 13.58 3.58Z" fill="black"/>
<path fill-rule="evenodd" clip-rule="evenodd" d="M15.8107 7.85124C17.331 7.58491 19.0646 7.83883 20.3248 8.67506L20.3262 8.67596C21.1875 9.25022 21.7176 10.0823 21.7176 11.01C21.7176 11.9377 21.1875 12.7698 20.3262 13.344C19.0753 14.1813 17.3624 14.4342 15.846 14.1796C15.4375 14.1111 15.1619 13.7243 15.2305 13.3158C15.2991 12.9073 15.6858 12.6318 16.0943 12.7003C17.3173 12.9057 18.6238 12.6789 19.4928 12.0969L19.4941 12.096C20.0427 11.7302 20.2176 11.3223 20.2176 11.01C20.2176 10.6978 20.0429 10.2901 19.4948 9.9245C18.615 9.34106 17.2889 9.11513 16.0695 9.32874C15.6615 9.40021 15.2729 9.12741 15.2014 8.71941C15.1299 8.31141 15.4027 7.92271 15.8107 7.85124Z" fill="black"/>
<path fill-rule="evenodd" clip-rule="evenodd" d="M1.72998 3.58C1.72998 1.74768 3.21388 0.25 5.05998 0.25C6.9042 0.25 8.38998 1.73579 8.38998 3.58C8.38998 5.38403 6.97013 6.84491 5.18714 6.90951C5.14632 6.91099 5.10547 6.90913 5.06498 6.90396C5.0245 6.90913 4.98364 6.91099 4.94283 6.90951C3.15889 6.84488 1.74285 5.38429 1.73 3.58536L1.72998 3.58ZM3.22998 3.57733C3.23836 4.559 3.99376 5.34613 4.94423 5.40782C5.02409 5.40073 5.10588 5.40073 5.18574 5.40782C6.13785 5.34607 6.88998 4.55792 6.88998 3.58C6.88998 2.56421 6.07577 1.75 5.05998 1.75C4.04698 1.75 3.23142 2.57087 3.22998 3.57733Z" fill="black"/>
<path fill-rule="evenodd" clip-rule="evenodd" d="M2.47535 9.92449C3.35511 9.34105 4.68121 9.11513 5.90058 9.32874C6.30858 9.40021 6.69728 9.12741 6.76875 8.71941C6.84022 8.31141 6.56742 7.92271 6.15942 7.85124C4.6391 7.58491 2.90557 7.83883 1.64533 8.67506L1.64533 8.67506L1.64398 8.67596C0.782592 9.25022 0.252502 10.0823 0.252502 11.01C0.252502 11.9374 0.782314 12.7693 1.6433 13.3436C2.89426 14.1812 4.60741 14.4343 6.12418 14.1796C6.53267 14.1111 6.80823 13.7243 6.73965 13.3158C6.67107 12.9073 6.28432 12.6318 5.87583 12.7003C4.65286 12.9057 3.34636 12.6789 2.47738 12.0969L2.47603 12.096C1.92741 11.7302 1.7525 11.3223 1.7525 11.01C1.7525 10.6978 1.92727 10.2901 2.47535 9.92449Z" fill="black"/>
<path fill-rule="evenodd" clip-rule="evenodd" d="M10.9101 9.21997C9.89429 9.21997 9.08008 10.0342 9.08008 11.05C9.08008 12.0279 9.83221 12.816 10.7843 12.8778C10.8653 12.8706 10.9483 12.8707 11.0292 12.8781C11.972 12.824 12.7317 12.0343 12.7401 11.0473C12.7386 10.0408 11.9231 9.21997 10.9101 9.21997ZM7.58008 11.05C7.58008 9.20576 9.06586 7.71997 10.9101 7.71997C12.7562 7.71997 14.2401 9.21765 14.2401 11.05V11.0553H14.2401C14.2272 12.8494 12.8148 14.3277 11.0218 14.3797C10.9828 14.3808 10.9438 14.3789 10.9051 14.3739C10.8646 14.3791 10.8237 14.381 10.7829 14.3795C8.99992 14.3149 7.58008 12.854 7.58008 11.05Z" fill="black"/>
<path fill-rule="evenodd" clip-rule="evenodd" d="M11.0037 15.235C12.1722 15.235 13.381 15.526 14.326 16.1559C15.1874 16.7302 15.7175 17.5623 15.7175 18.49C15.7175 19.4175 15.1875 20.2495 14.3263 20.8238C13.3774 21.4582 12.169 21.7525 11 21.7525C9.83097 21.7525 8.62258 21.4582 7.67362 20.8238C6.81243 20.2496 6.28247 19.4175 6.28247 18.49C6.28247 17.5623 6.81256 16.7302 7.67395 16.1559L7.67575 16.1547L7.67575 16.1547C8.62473 15.526 9.835 15.235 11.0037 15.235ZM8.50511 17.4046C7.95719 17.7702 7.78247 18.1778 7.78247 18.49C7.78247 18.8023 7.95738 19.2102 8.506 19.5759L8.5069 19.5765C9.15785 20.0119 10.0592 20.2525 11 20.2525C11.9407 20.2525 12.8421 20.0119 13.493 19.5765L13.4939 19.5759C14.0426 19.2102 14.2175 18.8023 14.2175 18.49C14.2175 18.1777 14.0426 17.7698 13.4939 17.404C12.8489 16.974 11.9477 16.735 11.0037 16.735C10.0604 16.735 9.15606 16.9737 8.50511 17.4046Z" fill="black"/>
</svg>
