<svg width="32" height="32" viewBox="0 0 22 22" fill="none" xmlns="http://www.w3.org/2000/svg">
<path fill-rule="evenodd" clip-rule="evenodd" d="M2.09467 2.09467C3.42914 0.760201 5.42603 0.25 8 0.25H14C16.574 0.25 18.5709 0.760201 19.9053 2.09467C21.2398 3.42914 21.75 5.42603 21.75 8V14C21.75 16.574 21.2398 18.5709 19.9053 19.9053C18.5709 21.2398 16.574 21.75 14 21.75H8C5.42603 21.75 3.42914 21.2398 2.09467 19.9053C0.760201 18.5709 0.25 16.574 0.25 14V8C0.25 5.42603 0.760201 3.42914 2.09467 2.09467ZM3.15533 3.15533C2.2398 4.07086 1.75 5.57397 1.75 8V14C1.75 16.426 2.2398 17.9291 3.15533 18.8447C4.07086 19.7602 5.57397 20.25 8 20.25H14C16.426 20.25 17.9291 19.7602 18.8447 18.8447C19.7602 17.9291 20.25 16.426 20.25 14V8C20.25 5.57397 19.7602 4.07086 18.8447 3.15533C17.9291 2.2398 16.426 1.75 14 1.75H8C5.57397 1.75 4.07086 2.2398 3.15533 3.15533Z" fill="#333333"/>
<path fill-rule="evenodd" clip-rule="evenodd" d="M16.1295 7.91722C16.4569 8.17099 16.5165 8.6421 16.2628 8.96948L13.9483 11.9552C13.3535 12.7075 12.2566 12.8447 11.4914 12.2534L11.4862 12.2494L9.65962 10.8121C9.54679 10.7264 9.38941 10.7477 9.30371 10.8582C9.30363 10.8583 9.3038 10.8581 9.30371 10.8582L6.92418 13.9476C6.67142 14.2758 6.2005 14.3369 5.87234 14.0842C5.54418 13.8314 5.48306 13.3605 5.73581 13.0323L8.11653 9.9414C8.71044 9.17281 9.81165 9.03389 10.5786 9.62652L10.5838 9.63056L12.4104 11.0679C12.5244 11.1545 12.6851 11.1322 12.7702 11.0267L15.0772 8.05049C15.331 7.72312 15.8021 7.66345 16.1295 7.91722Z" fill="#333333"/>
</svg>
